<svg xmlns="http://www.w3.org/2000/svg" xmlns:xlink="http://www.w3.org/1999/xlink" width="290" height="80" viewBox="0 0 290 80">
  <defs>
    <linearGradient id="linear-gradient" x1="0.5" x2="0.5" y2="1" gradientUnits="objectBoundingBox">
      <stop offset="0" stop-color="#fcb631"/>
      <stop offset="1" stop-color="#fc9631"/>
    </linearGradient>
    <clipPath id="clip-path">
      <rect id="Rectangle_28" data-name="Rectangle 28" width="26.129" height="24.566" fill="url(#linear-gradient)"/>
    </clipPath>
    <clipPath id="clip-Logo_for_light_BG">
      <rect width="290" height="80"/>
    </clipPath>
  </defs>
  <g id="Logo_for_light_BG" data-name="Logo for light BG" clip-path="url(#clip-Logo_for_light_BG)">
    <g id="Group_56" data-name="Group 56" transform="translate(-771 -164.434)">
      <path id="rippl-logo-deep-rgb" d="M332.111,1718.474a2.6,2.6,0,0,0,5.2,0v-7.942h6.548l7.182,9.168a2.972,2.972,0,0,0,2.536,1.352,2.45,2.45,0,0,0,2.492-2.408,3.012,3.012,0,0,0-.844-1.985l-5.662-7.14c3.971-1.226,6.718-4.1,6.718-8.83v-.084a8.936,8.936,0,0,0-2.451-6.38c-1.9-1.859-4.816-2.958-8.534-2.958H334.731a2.58,2.58,0,0,0-2.619,2.62Zm34.221,0a2.6,2.6,0,0,0,5.2,0v-24.841a2.6,2.6,0,0,0-5.2,0Zm16.478,0a2.6,2.6,0,0,0,5.2,0v-7.139h5.873c6.506,0,11.829-3.465,11.829-10.1v-.084c0-5.956-4.309-9.886-11.238-9.886h-9.041a2.579,2.579,0,0,0-2.619,2.62Zm31.6,0a2.6,2.6,0,0,0,5.2,0v-7.139h5.873c6.506,0,11.829-3.465,11.829-10.1v-.084c0-5.956-4.31-9.886-11.238-9.886h-9.042a2.58,2.58,0,0,0-2.619,2.62Zm31.6-.253a2.58,2.58,0,0,0,2.619,2.619H464.6a2.366,2.366,0,0,0,0-4.732H451.21v-22.476a2.6,2.6,0,0,0-5.2,0Zm-58.008-11.577V1696h6.042c3.887,0,6.38,1.817,6.38,5.281v.085c0,3.083-2.451,5.28-6.38,5.28Zm31.6,0V1696h6.041c3.888,0,6.38,1.817,6.38,5.281v.085c0,3.083-2.45,5.28-6.38,5.28Zm-82.3-.718V1696h7.562c3.845,0,6.126,1.733,6.126,4.9v.085c0,3-2.365,4.943-6.084,4.943Z" transform="translate(530.889 -1500.055)" fill="#011d29" fill-rule="evenodd"/>
      <path id="Path_10" data-name="Path 10" d="M28.8-3.945,17.844-28.621a2.669,2.669,0,0,0-2.453-1.589,2.669,2.669,0,0,0-2.453,1.589L1.986-3.945A2.657,2.657,0,0,0,3.35-.439,2.659,2.659,0,0,0,6.856-1.8L9.035-6.768H21.748L23.927-1.8A2.659,2.659,0,0,0,27.432-.439,2.657,2.657,0,0,0,28.8-3.945ZM11.369-12.088l4.022-9.164,4.022,9.164ZM36.47-.271a2.66,2.66,0,0,0,2.66-2.66V-27.263a2.66,2.66,0,0,0-2.66-2.66,2.66,2.66,0,0,0-2.66,2.66V-2.931A2.66,2.66,0,0,0,36.47-.271Z" transform="translate(1017.227 221.21)" fill="url(#linear-gradient)"/>
      <g id="Group_54" data-name="Group 54" transform="translate(1003.229 167.434)">
        <g id="Group_53" data-name="Group 53" clip-path="url(#clip-path)">
          <path id="Path_35" data-name="Path 35" d="M317.268,171.232l1.445,3.89a4.092,4.092,0,0,0,2.411,2.411l3.89,1.445a.364.364,0,0,1,0,.683l-3.89,1.445a4.092,4.092,0,0,0-2.411,2.411l-1.445,3.89a.364.364,0,0,1-.683,0l-1.445-3.89a4.092,4.092,0,0,0-2.411-2.411l-3.89-1.445a.364.364,0,0,1,0-.683l3.89-1.445a4.092,4.092,0,0,0,2.411-2.411l1.445-3.89a.364.364,0,0,1,.683,0" transform="translate(-299.122 -165.741)" fill="url(#linear-gradient)"/>
          <path id="Path_36" data-name="Path 36" d="M22.945.169l1.031,2.776a2.92,2.92,0,0,0,1.72,1.72L28.472,5.7a.26.26,0,0,1,0,.487L25.7,7.214a2.92,2.92,0,0,0-1.72,1.72L22.945,11.71a.26.26,0,0,1-.487,0L21.426,8.934a2.92,2.92,0,0,0-1.72-1.72L16.93,6.183a.26.26,0,0,1,0-.487l2.776-1.031a2.92,2.92,0,0,0,1.72-1.72L22.458.169a.26.26,0,0,1,.487,0" transform="translate(-16.246 0.001)" fill="url(#linear-gradient)"/>
          <path id="Path_37" data-name="Path 37" d="M4.6,512.381l.766,2.063a2.171,2.171,0,0,0,1.278,1.278l2.063.766a.193.193,0,0,1,0,.362l-2.063.766A2.171,2.171,0,0,0,5.362,518.9L4.6,520.959a.193.193,0,0,1-.362,0L3.467,518.9a2.171,2.171,0,0,0-1.278-1.278l-2.063-.766a.193.193,0,0,1,0-.362l2.063-.766a2.171,2.171,0,0,0,1.278-1.278l.766-2.063a.193.193,0,0,1,.362,0" transform="translate(0 -496.518)" fill="url(#linear-gradient)"/>
        </g>
      </g>
      <path id="Union_1" data-name="Union 1" d="M-1954.314,0a35.7,35.7,0,0,1,35.686,35.686,35.7,35.7,0,0,1-35.686,35.686A35.7,35.7,0,0,1-1990,35.686,35.7,35.7,0,0,1-1954.314,0Zm0,66.274a10.2,10.2,0,0,0,10.2-10.2,10.2,10.2,0,0,0-10.2-10.2,10.2,10.2,0,0,0-10.2,10.2A10.2,10.2,0,0,0-1954.314,66.274Zm14.815-6.385a20.319,20.319,0,0,0,5.578-14.008,20.4,20.4,0,0,0-20.392-20.392,20.4,20.4,0,0,0-20.392,20.392,20.319,20.319,0,0,0,5.578,14.008,15.3,15.3,0,0,1-.48-3.812,15.3,15.3,0,0,1,15.294-15.294,15.3,15.3,0,0,1,15.294,15.294A15.3,15.3,0,0,1-1939.5,59.89Zm9.078-5.111a30.453,30.453,0,0,0,6.7-19.092A30.6,30.6,0,0,0-1954.314,5.1,30.6,30.6,0,0,0-1984.9,35.686a30.454,30.454,0,0,0,6.7,19.092,25.4,25.4,0,0,1-1.6-8.9,25.5,25.5,0,0,1,25.49-25.49,25.5,25.5,0,0,1,25.49,25.49A25.4,25.4,0,0,1-1930.422,54.778Z" transform="translate(2766 170)" fill="#011d29" fill-rule="evenodd"/>
    </g>
  </g>
</svg>
